<?xml version="1.0" encoding="UTF-8" standalone="no"?>
<!-- Created with Inkscape (http://www.inkscape.org/) -->

<svg
   xmlns:dc="http://purl.org/dc/elements/1.1/"
   xmlns:cc="http://creativecommons.org/ns#"
   xmlns:rdf="http://www.w3.org/1999/02/22-rdf-syntax-ns#"
   xmlns:svg="http://www.w3.org/2000/svg"
   xmlns="http://www.w3.org/2000/svg"
   xmlns:sodipodi="http://sodipodi.sourceforge.net/DTD/sodipodi-0.dtd"
   xmlns:inkscape="http://www.inkscape.org/namespaces/inkscape"
   width="157.19858"
   height="38.482658"
   viewBox="0 0 41.592124 10.18187"
   version="1.1"
   id="svg6836"
   inkscape:version="0.92.0 r15299"
   sodipodi:docname="nats2.svg">
  <defs
     id="defs6830">
    <clipPath
       id="clipPath6273"
       clipPathUnits="userSpaceOnUse">
      <path
         inkscape:connector-curvature="0"
         id="path6271"
         d="M 433.466,770.688 H 552.991 V 799.37 H 433.466 Z" />
    </clipPath>
    <clipPath
       id="clipPath6213"
       clipPathUnits="userSpaceOnUse">
      <path
         inkscape:connector-curvature="0"
         id="path6211"
         d="m 442.879,793.656 -8.361,-21.87 h 0.001 5.901 l 7.605,19.978 c -1.097,2.46 -1.816,3.291 -2.837,3.291 v 0 c -0.833,0 -1.438,-0.378 -2.309,-1.399" />
    </clipPath>
    <mask
       id="mask6237"
       height="1"
       width="1"
       y="0"
       x="0"
       maskUnits="userSpaceOnUse">
      <g
         id="g6251">
        <g
           id="g6249"
           clip-path="url(#clipPath6221)">
          <g
             id="g6247">
            <g
               id="g6245">
              <g
                 id="g6243">
                <g
                   id="g6241">
                  <path
                     inkscape:connector-curvature="0"
                     id="path6239"
                     style="fill:url(#linearGradient6235);stroke:none"
                     d="m 455.786,792.089 -9.483,-24.808 -19.546,7.472 9.483,24.808 z" />
                </g>
              </g>
            </g>
          </g>
        </g>
      </g>
    </mask>
    <clipPath
       id="clipPath6221"
       clipPathUnits="userSpaceOnUse">
      <path
         inkscape:connector-curvature="0"
         id="path6219"
         d="M -11072.8,12223.7 H 11884.3 V -10733.4 H -11072.8 Z" />
    </clipPath>
    <linearGradient
       id="linearGradient6235"
       spreadMethod="pad"
       gradientTransform="matrix(-8.8514561,-23.155417,-23.155417,8.8514561,446.32245,794.94686)"
       gradientUnits="userSpaceOnUse"
       y2="0"
       x2="1"
       y1="0"
       x1="0">
      <stop
         id="stop6227"
         offset="0"
         style="stop-opacity:0.14999619;stop-color:#ffffff" />
      <stop
         id="stop6229"
         offset="0.19714958"
         style="stop-opacity:1;stop-color:#ffffff" />
      <stop
         id="stop6231"
         offset="0.55"
         style="stop-opacity:1;stop-color:#ffffff" />
      <stop
         id="stop6233"
         offset="1"
         style="stop-opacity:1;stop-color:#ffffff" />
    </linearGradient>
    <linearGradient
       id="linearGradient6263"
       spreadMethod="pad"
       gradientTransform="matrix(-3.1225969,8.1687164,-8.1687164,-3.1225969,130.15533,51.643389)"
       gradientUnits="userSpaceOnUse"
       y2="0"
       x2="1"
       y1="0"
       x1="0">
      <stop
         id="stop6257"
         offset="0"
         style="stop-opacity:1;stop-color:#ffffff" />
      <stop
         id="stop6259"
         offset="0.55"
         style="stop-opacity:1;stop-color:#185268" />
      <stop
         id="stop6261"
         offset="1"
         style="stop-opacity:1;stop-color:#185268" />
    </linearGradient>
    <clipPath
       id="clipPath6197"
       clipPathUnits="userSpaceOnUse">
      <path
         inkscape:connector-curvature="0"
         id="path6195"
         d="M 433.466,770.688 H 552.991 V 799.37 H 433.466 Z" />
    </clipPath>
    <clipPath
       id="clipPath6137"
       clipPathUnits="userSpaceOnUse">
      <path
         inkscape:connector-curvature="0"
         id="path6135"
         d="m 480.64,793.656 -12.714,-21.87 v 0 h 6.092 l 2.927,5.146 0.546,0.962 9.202,16.178 c -0.53,1.476 -1.286,2.157 -2.345,2.157 v 0 c -1.136,0 -2.044,-0.643 -3.708,-2.573" />
    </clipPath>
    <mask
       id="mask6161"
       height="1"
       width="1"
       y="0"
       x="0"
       maskUnits="userSpaceOnUse">
      <g
         id="g6175">
        <g
           id="g6173"
           clip-path="url(#clipPath6145)">
          <g
             id="g6171">
            <g
               id="g6169">
              <g
                 id="g6167">
                <g
                   id="g6165">
                  <path
                     inkscape:connector-curvature="0"
                     id="path6163"
                     style="fill:url(#linearGradient6159);stroke:none"
                     d="m 497.313,790.056 -15.36,-26.424 -24.647,14.328 15.36,26.423 z" />
                </g>
              </g>
            </g>
          </g>
        </g>
      </g>
    </mask>
    <clipPath
       id="clipPath6145"
       clipPathUnits="userSpaceOnUse">
      <path
         inkscape:connector-curvature="0"
         id="path6143"
         d="M -11072.8,12223.7 H 11884.3 V -10733.4 H -11072.8 Z" />
    </clipPath>
    <linearGradient
       id="linearGradient6159"
       spreadMethod="pad"
       gradientTransform="matrix(-14.166658,-24.370097,-24.370097,14.166658,485.13457,796.14966)"
       gradientUnits="userSpaceOnUse"
       y2="0"
       x2="1"
       y1="0"
       x1="0">
      <stop
         id="stop6151"
         offset="0"
         style="stop-opacity:0.14999619;stop-color:#ffffff" />
      <stop
         id="stop6153"
         offset="0.19714958"
         style="stop-opacity:1;stop-color:#ffffff" />
      <stop
         id="stop6155"
         offset="0.55"
         style="stop-opacity:1;stop-color:#ffffff" />
      <stop
         id="stop6157"
         offset="1"
         style="stop-opacity:1;stop-color:#ffffff" />
    </linearGradient>
    <linearGradient
       id="linearGradient6187"
       spreadMethod="pad"
       gradientTransform="matrix(-4.9976813,8.5972278,-8.5972278,-4.9976813,143.84738,51.219068)"
       gradientUnits="userSpaceOnUse"
       y2="0"
       x2="1"
       y1="0"
       x1="0">
      <stop
         id="stop6181"
         offset="0"
         style="stop-opacity:1;stop-color:#ffffff" />
      <stop
         id="stop6183"
         offset="0.55"
         style="stop-opacity:1;stop-color:#185268" />
      <stop
         id="stop6185"
         offset="1"
         style="stop-opacity:1;stop-color:#185268" />
    </linearGradient>
    <clipPath
       id="clipPath6125"
       clipPathUnits="userSpaceOnUse">
      <path
         inkscape:connector-curvature="0"
         id="path6123"
         d="M 433.466,770.688 H 552.991 V 799.37 H 433.466 Z" />
    </clipPath>
    <clipPath
       id="clipPath6065"
       clipPathUnits="userSpaceOnUse">
      <path
         inkscape:connector-curvature="0"
         id="path6063"
         d="m 499.495,798.272 -1.173,-4.616 h 11.805 c 0.844,3.18 2.723,4.616 6.014,4.616 v 0 0 z" />
    </clipPath>
    <mask
       id="mask6089"
       height="1"
       width="1"
       y="0"
       x="0"
       maskUnits="userSpaceOnUse">
      <g
         id="g6103">
        <g
           id="g6101"
           clip-path="url(#clipPath6073)">
          <g
             id="g6099">
            <g
               id="g6097">
              <g
                 id="g6095">
                <g
                   id="g6093">
                  <path
                     inkscape:connector-curvature="0"
                     id="path6091"
                     style="fill:url(#linearGradient6087);stroke:none"
                     d="m 511.687,785.94 -15.364,8.87 6.454,11.178 15.364,-8.87 z" />
                </g>
              </g>
            </g>
          </g>
        </g>
      </g>
    </mask>
    <clipPath
       id="clipPath6073"
       clipPathUnits="userSpaceOnUse">
      <path
         inkscape:connector-curvature="0"
         id="path6071"
         d="M -11072.8,12223.7 H 11884.3 V -10733.4 H -11072.8 Z" />
    </clipPath>
    <linearGradient
       id="linearGradient6087"
       spreadMethod="pad"
       gradientTransform="matrix(-11.624996,6.7116945,6.7116945,11.624996,512.9327,792.67275)"
       gradientUnits="userSpaceOnUse"
       y2="0"
       x2="1"
       y1="0"
       x1="0">
      <stop
         id="stop6079"
         offset="0"
         style="stop-opacity:0.14999619;stop-color:#ffffff" />
      <stop
         id="stop6081"
         offset="0.164455"
         style="stop-opacity:0.14999619;stop-color:#ffffff" />
      <stop
         id="stop6083"
         offset="0.46395926"
         style="stop-opacity:1;stop-color:#ffffff" />
      <stop
         id="stop6085"
         offset="1"
         style="stop-opacity:1;stop-color:#ffffff" />
    </linearGradient>
    <linearGradient
       id="linearGradient6115"
       spreadMethod="pad"
       gradientTransform="matrix(-4.1010402,-2.3677366,2.3677366,-4.1010402,153.65394,52.445645)"
       gradientUnits="userSpaceOnUse"
       y2="0"
       x2="1"
       y1="0"
       x1="0">
      <stop
         id="stop6109"
         offset="0"
         style="stop-opacity:1;stop-color:#ffffff" />
      <stop
         id="stop6111"
         offset="0.164455"
         style="stop-opacity:1;stop-color:#ffffff" />
      <stop
         id="stop6113"
         offset="1"
         style="stop-opacity:1;stop-color:#185268" />
    </linearGradient>
    <clipPath
       id="clipPath6053"
       clipPathUnits="userSpaceOnUse">
      <path
         inkscape:connector-curvature="0"
         id="path6051"
         d="M 433.466,770.688 H 552.991 V 799.37 H 433.466 Z" />
    </clipPath>
    <clipPath
       id="clipPath5993"
       clipPathUnits="userSpaceOnUse">
      <path
         inkscape:connector-curvature="0"
         id="path5991"
         d="m 543.835,779.241 c 0,-1.854 -1.627,-2.838 -4.654,-2.838 v 0 h -16.837 l -1.211,-4.617 h 18.994 c 2.951,0.379 5.221,2.686 5.221,5.184 v 0 c 0,0.91 -0.313,1.754 -0.912,2.49 v 0 c -0.409,0.504 -0.956,0.958 -1.627,1.348 v 0 c 0.712,-0.419 1.026,-0.936 1.026,-1.567" />
    </clipPath>
    <mask
       id="mask6017"
       height="1"
       width="1"
       y="0"
       x="0"
       maskUnits="userSpaceOnUse">
      <g
         id="g6031">
        <g
           id="g6029"
           clip-path="url(#clipPath6001)">
          <g
             id="g6027">
            <g
               id="g6025">
              <g
                 id="g6023">
                <g
                   id="g6021">
                  <path
                     inkscape:connector-curvature="0"
                     id="path6019"
                     style="fill:url(#linearGradient6015);stroke:none"
                     d="m 545.348,771.786 h -24.215 v 9.021 h 24.215 z" />
                </g>
              </g>
            </g>
          </g>
        </g>
      </g>
    </mask>
    <clipPath
       id="clipPath6001"
       clipPathUnits="userSpaceOnUse">
      <path
         inkscape:connector-curvature="0"
         id="path5999"
         d="M -11072.8,12223.7 H 11884.3 V -10733.4 H -11072.8 Z" />
    </clipPath>
    <linearGradient
       id="linearGradient6015"
       spreadMethod="pad"
       gradientTransform="matrix(-22.894596,0,0,22.894596,545.3479,776.29716)"
       gradientUnits="userSpaceOnUse"
       y2="0"
       x2="1"
       y1="0"
       x1="0">
      <stop
         id="stop6007"
         offset="0"
         style="stop-opacity:0.14999619;stop-color:#ffffff" />
      <stop
         id="stop6009"
         offset="0.19714958"
         style="stop-opacity:1;stop-color:#ffffff" />
      <stop
         id="stop6011"
         offset="0.55"
         style="stop-opacity:1;stop-color:#ffffff" />
      <stop
         id="stop6013"
         offset="1"
         style="stop-opacity:1;stop-color:#ffffff" />
    </linearGradient>
    <linearGradient
       id="linearGradient6043"
       spreadMethod="pad"
       gradientTransform="matrix(-8.0767052,0,0,-8.0767052,165.08931,58.222589)"
       gradientUnits="userSpaceOnUse"
       y2="0"
       x2="1"
       y1="0"
       x1="0">
      <stop
         id="stop6037"
         offset="0"
         style="stop-opacity:1;stop-color:#ffffff" />
      <stop
         id="stop6039"
         offset="0.55"
         style="stop-opacity:1;stop-color:#185268" />
      <stop
         id="stop6041"
         offset="1"
         style="stop-opacity:1;stop-color:#185268" />
    </linearGradient>
  </defs>
  <sodipodi:namedview
     id="base"
     pagecolor="#ffffff"
     bordercolor="#666666"
     borderopacity="1.0"
     inkscape:pageopacity="0.0"
     inkscape:pageshadow="2"
     inkscape:zoom="5.7426868"
     inkscape:cx="78.099332"
     inkscape:cy="18.741331"
     inkscape:document-units="mm"
     inkscape:current-layer="layer1"
     showgrid="false"
     fit-margin-top="0"
     fit-margin-left="0"
     fit-margin-right="0"
     fit-margin-bottom="0"
     units="px"
     inkscape:window-width="1280"
     inkscape:window-height="744"
     inkscape:window-x="-4"
     inkscape:window-y="-4"
     inkscape:window-maximized="1" />
  <metadata
     id="metadata6833">
    <rdf:RDF>
      <cc:Work
         rdf:about="">
        <dc:format>image/svg+xml</dc:format>
        <dc:type
           rdf:resource="http://purl.org/dc/dcmitype/StillImage" />
        <dc:title></dc:title>
      </cc:Work>
    </rdf:RDF>
  </metadata>
  <g
     inkscape:label="Layer 1"
     inkscape:groupmode="layer"
     id="layer1"
     transform="translate(-125.99098,-49.872007)">
    <g
       id="g7228"
       transform="translate(0.13229187,-0.13229298)">
      <path
         d="m 164.55559,57.184068 c 0,0.65405 -0.57397,1.001183 -1.64183,1.001183 v 0 h -5.93972 l -0.42721,1.628775 h 6.70066 c 1.04104,-0.133703 1.84185,-0.947561 1.84185,-1.8288 v 0 c 0,-0.321028 -0.11042,-0.618772 -0.32173,-0.878417 v 0 c -0.14429,-0.1778 -0.33726,-0.337961 -0.57397,-0.475544 v 0 c 0.25118,0.147814 0.36195,0.3302 0.36195,0.552803"
         style="fill:url(#linearGradient6043);stroke:none;stroke-width:0.35277778"
         id="path6045"
         inkscape:connector-curvature="0" />
      <path
         d="m 162.96703,50.47046 c -2.24261,0 -3.56376,1.027642 -3.56376,2.776361 0,1.121128 0.56056,1.761772 1.98861,2.295525 l 2.29587,0.854428 c 0.15981,0.05821 0.30692,0.124178 0.44062,0.197203 0.0222,0.01199 0.0434,0.02469 0.0649,0.03739 0.23741,0.137583 0.42968,0.297392 0.57432,0.475192 0.21131,0.259997 0.32173,0.557389 0.32173,0.878769 0,0.880886 -0.80116,1.694744 -1.84185,1.828447 2.1089,-0.09349 3.27025,-1.134533 3.27025,-2.963333 0,-1.014236 -0.62759,-1.668286 -2.13607,-2.242256 l -1.80164,-0.680861 c -0.96096,-0.360186 -1.21496,-0.573969 -1.21496,-1.00083 0,-0.534106 0.48048,-0.827617 1.38818,-0.827617 h 3.35033 c 0.5341,0 0.84137,-0.21343 0.96132,-0.667455 l 0.25364,-0.960967 z"
         style="fill:#185268;fill-opacity:1;fill-rule:nonzero;stroke:none;stroke-width:0.35277778"
         id="path6057"
         inkscape:connector-curvature="0" />
      <path
         d="m 148.91342,50.470354 -0.41381,1.628422 h 4.16454 c 0.29775,-1.121833 0.96062,-1.628422 2.12161,-1.628422 v 0 0 z"
         style="fill:url(#linearGradient6115);stroke:none;stroke-width:0.35277778"
         id="path6117"
         inkscape:connector-curvature="0" />
      <path
         d="m 154.78622,50.47046 c -1.16099,0 -1.82421,0.506236 -2.12196,1.628422 l -2.01542,7.714897 h 1.41464 c 0.48048,0 0.73413,-0.200378 0.86748,-0.720725 l 1.8288,-6.994172 h 3.03001 c 0.53375,0 0.84067,-0.21343 0.96097,-0.667455 l 0.25329,-0.960967 z"
         style="fill:#185268;fill-opacity:1;fill-rule:nonzero;stroke:none;stroke-width:0.35277778"
         id="path6129"
         inkscape:connector-curvature="0" />
      <path
         d="m 142.2618,52.098776 -4.48522,7.71525 v 0 h 2.14912 l 1.03258,-1.815394 0.19262,-0.339373 3.24626,-5.707238 c -0.18697,-0.5207 -0.45367,-0.760942 -0.82726,-0.760942 v 0 c -0.40076,0 -0.72108,0.226836 -1.3081,0.907697"
         style="fill:url(#linearGradient6187);stroke:none;stroke-width:0.35277778"
         id="path6189"
         inkscape:connector-curvature="0" />
      <path
         d="m 146.23912,51.671739 c -0.36054,-0.960967 -0.9211,-1.428397 -1.76177,-1.428397 -0.76094,0 -1.37478,0.413808 -1.89548,1.3081 l -0.32032,0.547511 c 0.58702,-0.680861 0.9077,-0.907697 1.3081,-0.907697 0.37359,0 0.64065,0.240241 0.82726,0.760589 l 1.5487,4.484863 h -4.10069 l -0.88794,1.561748 h 5.52238 l 0.37395,1.094669 c 0.17321,0.533753 0.44026,0.720725 1.01423,0.720725 h 1.46826 z"
         style="fill:#185268;fill-opacity:1;fill-rule:nonzero;stroke:none;stroke-width:0.35277778"
         id="path6201"
         inkscape:connector-curvature="0" />
      <path
         d="m 141.82365,56.436814 -0.88829,1.561747 h 0.0452 l 0.8883,-1.561747 z"
         style="fill:#185268;fill-opacity:1;fill-rule:nonzero;stroke:none;stroke-width:0.35277778"
         id="path6205"
         inkscape:connector-curvature="0" />
      <path
         d="m 128.94055,52.098776 -2.94957,7.71525 h 3.5e-4 2.08174 l 2.68288,-7.047794 c -0.387,-0.867834 -0.64065,-1.160992 -1.00083,-1.160992 v 0 c -0.29387,0 -0.5073,0.13335 -0.81457,0.493536"
         style="fill:url(#linearGradient6263);stroke:none;stroke-width:0.35277778"
         id="path6265"
         inkscape:connector-curvature="0" />
      <path
         d="m 130.75606,52.766196 c -0.387,-0.867481 -0.64064,-1.161344 -1.00118,-1.161344 -0.29351,0 -0.50694,0.133702 -0.81421,0.493888 l 0.30727,-0.800805 c 0.29351,-0.760942 0.8008,-1.161344 1.44145,-1.161344 0.6671,0 1.08126,0.320322 1.42804,1.081263 l 2.81658,6.166556 2.34914,-6.139745 c 0.21343,-0.560916 0.46708,-0.774347 0.8943,-0.774347 h 1.46826 l -3.21698,8.435975 c -0.28011,0.734131 -0.80081,1.147586 -1.45486,1.147586 -0.64064,0 -1.08126,-0.333375 -1.42804,-1.107722 z"
         style="fill:#185268;fill-opacity:1;fill-rule:nonzero;stroke:none;stroke-width:0.35277778"
         id="path6277"
         inkscape:connector-curvature="0" />
    </g>
  </g>
</svg>
